HIERARCHY
ROOT root
{
	OFFSET 0.000000 0.000000 0.000000
	CHANNELS 6 Xposition Yposition Zposition Zrotation Yrotation Xrotation
	JOINT lhip
	{
		OFFSET 0.058581 -0.082280 -0.017664
		CHANNELS 3 Zrotation Yrotation Xrotation
		JOINT lknee
		{
			OFFSET 0.043451 -0.386469 0.008037
			CHANNELS 3 Zrotation Yrotation Xrotation
			JOINT lankle
			{
				OFFSET -0.014790 -0.426874 -0.037428
				CHANNELS 3 Zrotation Yrotation Xrotation
				JOINT ltoe
				{
					OFFSET 0.041054 -0.060286 0.122042
					CHANNELS 3 Zrotation Yrotation Xrotation
					End Site
					{
						OFFSET 0.000000 0.000000 0.000000
					}
				}
			}
		}
	}
	JOINT rhip
	{
		OFFSET -0.060310 -0.090513 -0.013543
		CHANNELS 3 Zrotation Yrotation Xrotation
		JOINT rknee
		{
			OFFSET -0.043257 -0.383688 -0.004843
			CHANNELS 3 Zrotation Yrotation Xrotation
			JOINT rankle
			{
				OFFSET 0.019056 -0.420046 -0.034562
				CHANNELS 3 Zrotation Yrotation Xrotation
				JOINT rtoe
				{
					OFFSET -0.034840 -0.062106 0.130323
					CHANNELS 3 Zrotation Yrotation Xrotation
					End Site
					{
						OFFSET 0.000000 0.000000 0.000000
					}
				}
			}
		}
	}
	JOINT lowerback
	{
		OFFSET 0.004439 0.124404 -0.038385
		CHANNELS 3 Zrotation Yrotation Xrotation
		JOINT upperback
		{
			OFFSET 0.004488 0.137956 0.026820
			CHANNELS 3 Zrotation Yrotation Xrotation
			JOINT chest
			{
				OFFSET -0.002265 0.056032 0.002855
				CHANNELS 3 Zrotation Yrotation Xrotation
				JOINT lowerneck
				{
					OFFSET -0.013390 0.211636 -0.033468
					CHANNELS 3 Zrotation Yrotation Xrotation
					JOINT upperneck
					{
						OFFSET 0.010113 0.088937 0.050410
						CHANNELS 3 Zrotation Yrotation Xrotation
						End Site
						{
							OFFSET 0.000000 0.000000 0.000000
						}
					}
				}
				JOINT lclavicle
				{
					OFFSET 0.071702 0.114000 -0.018898
					CHANNELS 3 Zrotation Yrotation Xrotation
					JOINT lshoulder
					{
						OFFSET 0.122921 0.045205 -0.019046
						CHANNELS 3 Zrotation Yrotation Xrotation
						JOINT lelbow
						{
							OFFSET 0.255332 -0.015649 -0.022946
							CHANNELS 3 Zrotation Yrotation Xrotation
							JOINT lwrist
							{
								OFFSET 0.265709 0.012698 -0.007375
								CHANNELS 3 Zrotation Yrotation Xrotation
								End Site
								{
									OFFSET 0.000000 0.000000 0.000000
								}
							}
						}
					}
				}
				JOINT rclavicle
				{
					OFFSET -0.082954 0.112472 -0.023707
					CHANNELS 3 Zrotation Yrotation Xrotation
					JOINT rshoulder
					{
						OFFSET -0.113228 0.046853 -0.008472
						CHANNELS 3 Zrotation Yrotation Xrotation
						JOINT relbow
						{
							OFFSET -0.260127 -0.014369 -0.031269
							CHANNELS 3 Zrotation Yrotation Xrotation
							JOINT rwrist
							{
								OFFSET -0.269108 0.006794 -0.006027
								CHANNELS 3 Zrotation Yrotation Xrotation
								End Site
								{
									OFFSET 0.000000 0.000000 0.000000
								}
							}
						}
					}
				}
			}
		}
	}
}
MOTION
Frames: 7
Frame Time: 0.033333
1.898953 0.627584 0.984313 -92.973929 2.339498 85.270904 1.610147 -1.132186 8.398916 -2.818886 -11.241640 3.989049 4.955908 10.071039 -20.864566 0.000000 -0.000000 0.000000 1.002019 -2.632242 4.490637 2.595802 0.492939 10.739173 4.298066 -3.896032 -14.516473 0.000000 -0.000000 0.000000 -1.806352 2.790086 4.872485 1.639846 -0.167659 2.306788 0.901835 0.649819 3.080896 2.437913 1.995559 6.591231 0.193321 -3.098103 10.161602 -22.443322 4.388640 3.602832 -56.661246 -6.062227 7.965012 13.531482 -33.616200 7.974952 -6.683920 -5.788650 -3.410930 23.360647 -1.408507 3.023870 56.402407 0.672140 8.480448 -19.882781 23.273127 -3.963279 6.790812 0.411146 -4.384546 
1.899424 0.627373 0.984344 -93.112385 2.336887 85.351558 1.566958 -1.457370 8.392532 -2.824648 -10.996024 3.817781 4.881425 10.214826 -20.652570 0.000000 -0.000000 0.000000 1.004137 -2.334756 4.414114 2.736213 0.439273 10.632569 4.185529 -4.198977 -14.362473 0.000000 -0.000000 0.000000 -1.859636 2.720671 4.661655 1.706175 -0.154598 2.445907 0.935748 0.577564 3.070596 2.465060 1.817915 6.593290 0.193198 -3.200889 10.184802 -22.571588 4.420505 3.670918 -57.190276 -6.192014 8.419428 12.465243 -33.837045 8.828376 -9.257411 -5.851979 -4.944431 23.359163 -1.392345 3.029121 56.948680 0.881199 8.816126 -19.154720 23.213857 -3.554374 9.045437 0.355834 -5.373252 
1.899596 0.627049 0.984330 -93.133542 2.381540 85.367063 1.619001 -1.591280 8.465061 -2.870373 -10.778979 3.622366 5.084335 10.185442 -20.557223 0.000000 -0.000000 0.000000 1.016198 -2.311710 4.422816 2.909911 0.239319 10.458644 3.901418 -4.430370 -14.391936 0.000000 -0.000000 0.000000 -1.837201 2.690146 4.572560 1.765436 -0.274120 2.570935 0.975846 0.530720 2.824460 2.328748 1.761300 6.754344 0.168532 -2.878421 10.096346 -22.575419 4.275618 4.096646 -57.922140 -6.133923 8.578440 11.550794 -33.722129 9.482726 -11.467549 -6.219569 -6.827208 23.317596 -1.358057 3.459893 57.513951 0.826799 8.959431 -18.642724 23.437563 -3.152700 10.474093 0.556969 -6.386267 
1.899234 0.626552 0.984327 -93.293546 2.391826 85.296713 1.592453 -1.604406 8.659815 -2.915645 -10.503180 3.441968 5.270294 10.197950 -20.283187 0.000000 -0.000000 0.000000 0.988366 -2.262248 4.417877 3.076576 -0.328423 10.309709 3.633894 -4.542486 -14.628616 0.000000 -0.000000 0.000000 -1.880075 2.686063 4.453449 1.845862 -0.282405 2.659511 1.066437 0.504904 2.778339 2.484883 1.770752 6.687678 0.245934 -2.799776 10.169105 -22.609524 4.170077 4.359946 -59.149833 -5.935855 9.060681 11.031383 -32.845114 10.933302 -13.082161 -6.298882 -6.606705 23.434877 -1.525123 3.808923 58.566016 0.626767 9.099173 -18.429813 23.015648 -2.558448 11.189063 0.878617 -6.756576 
1.899401 0.626449 0.984336 -93.300754 2.407419 85.306721 1.590367 -1.648880 8.626391 -2.911259 -10.431962 3.478637 5.267732 10.223196 -20.280997 0.000000 -0.000000 0.000000 1.005981 -2.212138 4.367297 3.076858 -0.386971 10.334458 3.616416 -4.497114 -14.706303 0.000000 -0.000000 0.000000 -1.884815 2.687525 4.474756 1.869350 -0.304096 2.607837 1.095971 0.475236 2.805829 2.537691 1.830388 6.626606 0.287943 -2.780523 10.208829 -22.678699 4.228163 4.390845 -59.527257 -5.831955 9.195181 11.033357 -32.580793 11.218685 -13.189607 -6.257990 -6.374358 23.508871 -1.665956 3.896932 58.894842 0.511134 9.099400 -18.390009 22.918914 -2.536532 11.125617 0.890990 -6.849520 
1.899417 0.626429 0.984450 -93.393266 2.435844 85.271401 1.613416 -1.578767 8.656317 -2.904718 -10.373715 3.567446 5.225708 10.169151 -20.308874 0.000000 -0.000000 0.000000 1.025412 -2.212099 4.344368 3.044724 -0.524294 10.448597 3.609633 -4.309293 -14.751434 0.000000 -0.000000 0.000000 -1.900408 2.677980 4.498092 1.932476 -0.346439 2.597239 1.167413 0.404673 2.889241 2.665939 1.662185 6.622367 0.297820 -3.073689 10.367335 -22.949870 4.437351 4.403969 -60.295370 -5.588999 9.265899 11.385295 -31.864548 10.934617 -12.871508 -6.338122 -6.406032 23.843040 -1.998751 3.985726 59.312689 0.451128 9.042042 -18.360535 22.472174 -2.656227 10.616577 1.161629 -6.808271 
1.899402 0.626575 0.984397 -93.461740 2.451015 85.257643 1.642733 -1.478949 8.660218 -2.901761 -10.318786 3.644030 5.183455 10.079027 -20.471841 0.000000 -0.000000 0.000000 1.053502 -2.219814 4.268229 3.003991 -0.510761 10.636451 3.639529 -4.240483 -14.933514 0.000000 -0.000000 0.000000 -1.897383 2.565371 4.577734 1.883488 -0.289376 2.447069 1.228931 0.288170 3.036180 2.702951 2.196711 6.087386 0.421484 -2.506310 10.409276 -23.156197 4.769692 4.395838 -61.051317 -5.198651 9.139011 11.854792 -31.205142 10.169052 -11.738030 -6.667857 -6.856889 24.274774 -2.363215 4.167077 59.532501 0.458469 9.065535 -18.200747 21.955341 -2.754395 9.629289 1.728351 -6.643535 
